<svg width="698" height="564" viewBox="0 0 698 564" fill="none" xmlns="http://www.w3.org/2000/svg">
<g clip-path="url(#clip0_9_11)">
<path d="M176.68 234.04C218.55 204.37 260.42 174.69 302.3 145.02L391.41 218.81L302.05 163.15L245.88 199.66C245.79 204.09 245.71 208.51 245.62 212.94C237.01 213.69 226.97 215.21 216 218.14C199.81 222.47 186.61 228.53 176.68 234.04Z" fill="url(#paint0_linear_9_11)"/>
<path d="M241.4 185.55V163.02H260.36V172.53C260.36 172.53 241.31 185.46 241.4 185.55Z" fill="url(#paint1_linear_9_11)"/>
<path d="M301.27 183.89H290.36V194.8H301.27V183.89Z" fill="url(#paint2_linear_9_11)"/>
<path d="M301.36 197.94H290.45V208.85H301.36V197.94Z" fill="url(#paint3_linear_9_11)"/>
<path d="M315.48 198.02H304.57V208.93H315.48V198.02Z" fill="url(#paint4_linear_9_11)"/>
<path d="M315.48 183.81H304.57V194.72H315.48V183.81Z" fill="url(#paint5_linear_9_11)"/>
<path d="M426.46 215.49H412.91V225.79H426.46V215.49Z" fill="url(#paint6_linear_9_11)"/>
<path d="M307.02 143.11L386.81 205.4L414.38 170.81L386.55 172.34L307.02 143.11Z" fill="url(#paint7_linear_9_11)"/>
<path d="M399.06 127.15V168L417.45 166.21L427.15 175.66V111.06L399.06 127.15Z" fill="url(#paint8_linear_9_11)"/>
<path d="M462.26 226.72V218.43L417.96 172.6L389.87 208.72L396.34 210.3L419.11 183.57L448.09 214.09V226.6H462.26" fill="url(#paint9_linear_9_11)"/>
<path d="M431.62 117.06V180.51L447.57 196.85L447.66 127.15L431.62 117.06Z" fill="url(#paint10_linear_9_11)"/>
<path d="M462.64 76.85L432.77 94.3V111.92L451.54 123.83V199.83L462.14 211.92C462.13 211.91 462.64 76.6 462.64 76.85Z" fill="url(#paint11_linear_9_11)"/>
<path d="M466.44 78.86V226.55H483.74V91.15L466.44 78.86Z" fill="url(#paint12_linear_9_11)"/>
<path d="M507.42 130.91L487.44 119.48V226.84H507.35C507.36 226.85 507.23 131.11 507.42 130.91Z" fill="url(#paint13_linear_9_11)"/>
<path d="M151.4 414.68L80.17 412.98V412.64L151.4 410.94V414.68Z" fill="#194C18"/>
<path d="M579.06 410.94L650.3 412.64V412.98L579.06 414.68V410.94Z" fill="#194C18"/>
<path d="M191.81 422.3L185.54 398.69H189.25C191.16 407.01 193.42 415.84 193.82 418.52H193.85C194.52 415.23 197.58 404.65 199.1 398.69H202.44C203.82 403.82 206.88 415.28 207.46 418.38H207.49C208.25 414.09 211.37 403.32 212.58 398.69H216.03L209.23 422.3H205.5C204.11 416.91 201.25 406.34 200.63 403.28H200.6C199.86 406.93 197 417.01 195.53 422.3H191.81Z" fill="black"/>
<path d="M222.55 397.37V407.45C223.41 406.01 224.95 404.59 227.87 404.59C230.73 404.59 233.69 406.18 233.69 411.25V422.31H230.37V411.79C230.37 408.98 229.21 407.43 226.79 407.43C223.76 407.43 222.55 409.47 222.55 412.9V422.31H219.21V397.38H222.55V397.37Z" fill="black"/>
<path d="M240.84 414.28C240.86 417.54 242.5 419.96 245.33 419.96C247.92 419.96 248.75 418.67 249.28 417.44H252.64C251.97 419.64 250.11 422.7 245.23 422.7C239.74 422.7 237.47 418.31 237.47 413.84C237.47 408.64 240.1 404.58 245.42 404.58C251.07 404.58 252.94 409.02 252.94 412.84C252.94 413.38 252.94 413.81 252.89 414.28H240.84ZM249.57 412.01C249.54 409.32 248.23 407.15 245.39 407.15C242.49 407.15 241.23 409.16 240.95 412.01H249.57Z" fill="black"/>
<path d="M256.65 409.69C256.65 407.41 256.63 406.01 256.62 404.99H259.89C259.94 405.46 259.99 406.88 259.99 408.43C260.87 406.16 262.89 404.66 265.77 404.59V407.88C262.23 407.95 259.99 409.62 259.99 414.07V422.31H256.65V409.69Z" fill="black"/>
<path d="M271.07 414.28C271.09 417.54 272.73 419.96 275.56 419.96C278.15 419.96 278.98 418.67 279.51 417.44H282.87C282.2 419.64 280.34 422.7 275.46 422.7C269.97 422.7 267.7 418.31 267.7 413.84C267.7 408.64 270.33 404.58 275.65 404.58C281.3 404.58 283.17 409.02 283.17 412.84C283.17 413.38 283.17 413.81 283.12 414.28H271.07ZM279.79 412.01C279.76 409.32 278.45 407.15 275.61 407.15C272.71 407.15 271.45 409.16 271.17 412.01H279.79Z" fill="black"/>
<path d="M300.75 401.65H293.21V398.68H311.82V401.65H304.28V422.3H300.76V401.65H300.75Z" fill="black"/>
<path d="M314.58 409.69C314.58 407.41 314.56 406.01 314.55 404.99H317.82C317.87 405.46 317.92 406.88 317.92 408.43C318.8 406.16 320.82 404.66 323.7 404.59V407.88C320.16 407.95 317.92 409.62 317.92 414.07V422.31H314.58V409.69Z" fill="black"/>
<path d="M340.97 417.26C340.97 418.94 340.99 421.18 341 422.3H337.75C337.68 421.84 337.65 420.81 337.63 419.82C336.75 421.7 335.1 422.71 332.48 422.71C329.44 422.71 326.75 421.12 326.75 416.36V405H330.07V415.66C330.07 417.86 330.76 419.86 333.48 419.86C336.47 419.86 337.63 418.21 337.63 414.06V405H340.97V417.26Z" fill="black"/>
<path d="M347.78 417.3C348.25 419.09 349.6 420.14 351.83 420.14C354.22 420.14 355.15 419.13 355.15 417.66C355.15 416.14 354.37 415.45 351.22 414.69C346.14 413.45 345.13 411.89 345.13 409.53C345.13 407.06 346.93 404.59 351.53 404.59C356.14 404.59 357.96 407.23 358.17 409.63H354.96C354.73 408.6 353.96 407.11 351.38 407.11C349.12 407.11 348.44 408.19 348.44 409.25C348.44 410.46 349.12 411.05 352.22 411.79C357.57 413.05 358.57 414.85 358.57 417.41C358.57 420.41 356.21 422.7 351.71 422.7C347.08 422.7 344.89 420.38 344.46 417.29H347.78V417.3Z" fill="black"/>
<path d="M360.17 404.99H363.1V399.96H366.44V404.99H370.18V407.65H366.44V417.48C366.44 419.09 366.85 419.89 368.39 419.89C368.78 419.89 369.37 419.87 369.82 419.76V422.21C369.04 422.49 367.96 422.53 367.11 422.53C364.28 422.53 363.11 421.06 363.11 418.15V407.65H360.18V404.99H360.17Z" fill="black"/>
<path d="M387.28 401.65H379.74V398.68H398.35V401.65H390.81V422.3H387.29V401.65H387.28Z" fill="black"/>
<path d="M414.28 418.39C414.28 419.98 414.42 421.82 414.52 422.3H411.33C411.19 421.92 411.09 421.08 411.05 420.15C410.44 421.27 409.1 422.71 405.8 422.71C401.7 422.71 399.96 420.04 399.96 417.39C399.96 413.51 403.02 411.73 408.15 411.73C409.28 411.73 410.38 411.73 411.01 411.73V410.34C411.01 408.87 410.53 407.13 407.49 407.13C404.77 407.13 404.29 408.45 403.99 409.79H400.78C401.02 407.27 402.57 404.57 407.6 404.58C411.91 404.59 414.28 406.33 414.28 410.31V418.39ZM411.03 413.97C410.51 413.97 409.27 413.97 408.39 413.97C405.05 413.97 403.35 414.91 403.35 417.2C403.35 418.89 404.49 420.16 406.55 420.16C410.5 420.16 411.03 417.49 411.03 414.51V413.97Z" fill="black"/>
<path d="M422.6 413.07C424.02 411.36 427.53 407.61 429.89 404.99H433.83L427.41 411.69L434.54 422.29H430.67L425.13 413.83L422.6 416.27V422.29H419.26V397.36H422.6V413.07Z" fill="black"/>
<path d="M438.92 414.28C438.94 417.54 440.58 419.96 443.41 419.96C446 419.96 446.83 418.67 447.36 417.44H450.72C450.05 419.64 448.19 422.7 443.31 422.7C437.82 422.7 435.55 418.31 435.55 413.84C435.55 408.64 438.18 404.58 443.5 404.58C449.15 404.58 451.02 409.02 451.02 412.84C451.02 413.38 451.02 413.81 450.97 414.28H438.92ZM447.65 412.01C447.62 409.32 446.31 407.15 443.47 407.15C440.57 407.15 439.31 409.16 439.03 412.01H447.65Z" fill="black"/>
<path d="M456.58 417.3C457.05 419.09 458.4 420.14 460.63 420.14C463.02 420.14 463.95 419.13 463.95 417.66C463.95 416.14 463.16 415.45 460.02 414.69C454.94 413.45 453.93 411.89 453.93 409.53C453.93 407.06 455.73 404.59 460.33 404.59C464.94 404.59 466.76 407.23 466.97 409.63H463.76C463.53 408.6 462.76 407.11 460.18 407.11C457.92 407.11 457.24 408.19 457.24 409.25C457.24 410.46 457.92 411.05 461.02 411.79C466.37 413.05 467.37 414.85 467.37 417.41C467.37 420.41 465.01 422.7 460.51 422.7C455.88 422.7 453.69 420.38 453.26 417.29H456.58V417.3Z" fill="black"/>
<path d="M483.65 412.08V422.3H480.19V398.69H489.63C494.54 398.69 497.16 401.36 497.16 405.04C497.16 408.13 495.4 409.96 493.25 410.6C495.03 411.1 496.73 412.5 496.73 416.62V417.66C496.73 419.28 496.67 421.29 497.05 422.3H493.67C493.24 421.28 493.25 419.45 493.25 417.18V416.71C493.25 413.5 492.36 412.08 488.2 412.08H483.65ZM483.65 409.17H488.62C492.08 409.17 493.57 407.87 493.57 405.34C493.57 402.94 492.01 401.59 488.93 401.59H483.65V409.17Z" fill="black"/>
<path d="M516.69 413.61C516.69 418.64 513.78 422.71 508.45 422.71C503.41 422.71 500.39 418.87 500.39 413.68C500.39 408.53 503.38 404.59 508.65 404.59C513.51 404.58 516.69 408.18 516.69 413.61ZM503.81 413.64C503.81 417.35 505.61 419.96 508.57 419.96C511.58 419.96 513.26 417.46 513.26 413.65C513.26 409.81 511.58 407.32 508.5 407.32C505.46 407.32 503.81 409.75 503.81 413.64Z" fill="black"/>
<path d="M535.56 413.61C535.56 418.64 532.65 422.71 527.32 422.71C522.28 422.71 519.26 418.87 519.26 413.68C519.26 408.53 522.25 404.59 527.52 404.59C532.38 404.58 535.56 408.18 535.56 413.61ZM522.68 413.64C522.68 417.35 524.48 419.96 527.44 419.96C530.45 419.96 532.13 417.46 532.13 413.65C532.13 409.81 530.45 407.32 527.37 407.32C524.33 407.32 522.68 409.75 522.68 413.64Z" fill="black"/>
<path d="M537.2 404.99H540.13V399.96H543.47V404.99H547.21V407.65H543.47V417.48C543.47 419.09 543.88 419.89 545.42 419.89C545.81 419.89 546.4 419.87 546.85 419.76V422.21C546.07 422.49 544.99 422.53 544.14 422.53C541.31 422.53 540.14 421.06 540.14 418.15V407.65H537.21V404.99H537.2Z" fill="black"/>
<path d="M159.06 249.79C227.97 234.23 280.27 238.53 315.06 245.19C362.47 254.28 396.78 271.48 452.42 266.3C484.51 263.31 509.98 254.15 525.95 247.24C515.59 250.56 499.83 254.9 480.31 257.36C420.09 264.95 374.2 248.36 350.46 241.71C310.01 230.38 248.45 224.05 159.06 249.79Z" fill="url(#paint14_linear_9_11)"/>
<path d="M561.11 219.83C562.82 218.59 545.87 232.57 528.59 239.94C488.22 257.15 439.65 252.51 397.7 245.06C390.22 243.73 378.06 241.31 350.64 236.43C327.01 232.22 318.1 230.83 306.04 229.96C300.88 229.59 287.2 228.74 269.44 229.62C249.73 230.59 235.64 233.31 215.68 236.87C195.1 240.54 176.11 244.97 158.84 249.71C158.84 249.71 193.05 224.18 262.37 222.26C331.69 220.34 369.35 228.64 369.35 228.64C369.35 228.64 467.9 248.43 506.46 237.96C506.47 237.96 542.55 233.36 561.11 219.83Z" fill="url(#paint15_linear_9_11)"/>
<path d="M142.866 331.443V354.668C142.866 355.693 143.105 356.497 143.583 357.078C144.096 357.625 144.951 358.052 146.147 358.359V360H124.306V358.359C125.537 358.018 126.391 357.573 126.87 357.026C127.348 356.479 127.587 355.693 127.587 354.668V295.4C127.587 294.341 127.348 293.538 126.87 292.991C126.391 292.444 125.537 292 124.306 291.658V290.017H168.09C173.422 290.017 177.644 290.325 180.754 290.94C183.898 291.555 186.633 292.632 188.957 294.17C191.657 295.947 193.674 298.357 195.007 301.399C196.271 304.338 196.904 307.483 196.904 310.833C196.904 322.249 190.563 328.931 177.883 330.879L191.469 350.208C193.862 353.591 195.605 355.779 196.699 356.77C197.827 357.727 199.194 358.257 200.8 358.359V360H175.473V358.359C177.216 358.086 178.088 357.471 178.088 356.514C178.088 355.898 177.285 354.412 175.678 352.053L161.528 331.443H142.866ZM142.866 319.907H166.45C169.936 319.907 172.397 319.805 173.833 319.6C175.268 319.395 176.584 318.967 177.78 318.318C180.378 316.917 181.677 314.387 181.677 310.73C181.677 307.073 180.378 304.543 177.78 303.142C176.55 302.458 175.234 302.031 173.833 301.86C172.465 301.655 170.004 301.553 166.45 301.553H142.866V319.907ZM260.478 342.158H228.691L223.974 352.002C223.325 353.369 223 354.446 223 355.232C223 356.736 224.145 357.778 226.435 358.359V360H203.261V358.359C204.628 358.086 205.671 357.607 206.389 356.924C207.106 356.24 207.927 354.907 208.85 352.925L234.587 299.143C235.407 297.434 235.817 296.067 235.817 295.042C235.817 293.469 234.826 292.341 232.844 291.658V290.017H257.658V291.658C255.642 292.239 254.633 293.247 254.633 294.683C254.633 295.674 254.958 296.802 255.607 298.066L282.268 352.002C283.396 354.292 284.387 355.864 285.241 356.719C286.096 357.539 287.241 358.086 288.676 358.359V360H262.939V358.359C265.195 357.983 266.323 356.924 266.323 355.181C266.323 354.463 265.981 353.403 265.297 352.002L260.478 342.158ZM256.069 332.571L244.738 307.654L233.254 332.571H256.069ZM324.873 330.725V354.617C324.873 355.676 325.112 356.479 325.59 357.026C326.103 357.573 326.975 358.018 328.205 358.359V360H306.21V358.359C307.441 358.018 308.312 357.573 308.825 357.026C309.338 356.479 309.594 355.676 309.594 354.617V330.725L286.984 298.887C285.036 296.152 283.498 294.324 282.37 293.401C281.276 292.444 279.96 291.863 278.422 291.658V290.017H306.057V291.658C303.767 292.034 302.622 293.093 302.622 294.836C302.622 295.452 303.322 296.802 304.724 298.887L317.336 317.651L330.307 298.887C331.708 296.87 332.409 295.503 332.409 294.785C332.409 293.999 332.102 293.333 331.486 292.786C330.871 292.205 330.034 291.829 328.974 291.658V290.017H356.044V291.658C354.506 291.863 353.173 292.444 352.045 293.401C350.952 294.324 349.431 296.152 347.482 298.887L324.873 330.725ZM394.599 288.787C406.801 288.787 416.474 292.085 423.618 298.682C431.171 305.586 434.948 314.507 434.948 325.444C434.948 332.144 433.137 338.398 429.514 344.209C422.438 355.557 410.834 361.23 394.702 361.23C382.602 361.23 372.98 357.932 365.837 351.335C362.009 347.815 359.104 343.594 357.121 338.672C355.378 334.331 354.506 329.768 354.506 324.983C354.506 317.976 356.301 311.567 359.89 305.757C366.76 294.648 378.33 288.992 394.599 288.787ZM394.65 300.63C387.985 300.63 382.431 302.612 377.988 306.577C372.724 311.26 370.092 317.395 370.092 324.983C370.092 332.571 372.724 338.706 377.988 343.389C382.431 347.354 388.02 349.336 394.753 349.336C401.486 349.336 407.058 347.354 411.467 343.389C414.099 341.03 416.115 338.142 417.517 334.724C418.747 331.682 419.362 328.538 419.362 325.291C419.362 317.361 416.73 311.123 411.467 306.577C406.989 302.681 401.384 300.698 394.65 300.63ZM464.531 331.443V354.668C464.531 355.693 464.77 356.497 465.249 357.078C465.761 357.625 466.616 358.052 467.812 358.359V360H445.971V358.359C447.202 358.018 448.056 357.573 448.535 357.026C449.013 356.479 449.252 355.693 449.252 354.668V295.4C449.252 294.341 449.013 293.538 448.535 292.991C448.056 292.444 447.202 292 445.971 291.658V290.017H489.755C495.087 290.017 499.309 290.325 502.419 290.94C505.563 291.555 508.298 292.632 510.622 294.17C513.322 295.947 515.339 298.357 516.672 301.399C517.937 304.338 518.569 307.483 518.569 310.833C518.569 322.249 512.229 328.931 499.548 330.879L513.134 350.208C515.527 353.591 517.27 355.779 518.364 356.77C519.492 357.727 520.859 358.257 522.465 358.359V360H497.138V358.359C498.881 358.086 499.753 357.471 499.753 356.514C499.753 355.898 498.95 354.412 497.343 352.053L483.193 331.443H464.531ZM464.531 319.907H488.115C491.601 319.907 494.062 319.805 495.498 319.6C496.933 319.395 498.249 318.967 499.445 318.318C502.043 316.917 503.342 314.387 503.342 310.73C503.342 307.073 502.043 304.543 499.445 303.142C498.215 302.458 496.899 302.031 495.498 301.86C494.13 301.655 491.669 301.553 488.115 301.553H464.531V319.907ZM582.143 342.158H550.356L545.639 352.002C544.99 353.369 544.665 354.446 544.665 355.232C544.665 356.736 545.81 357.778 548.1 358.359V360H524.926V358.359C526.293 358.086 527.336 357.607 528.054 356.924C528.771 356.24 529.592 354.907 530.515 352.925L556.252 299.143C557.072 297.434 557.482 296.067 557.482 295.042C557.482 293.469 556.491 292.341 554.509 291.658V290.017H579.323V291.658C577.307 292.239 576.298 293.247 576.298 294.683C576.298 295.674 576.623 296.802 577.272 298.066L603.933 352.002C605.061 354.292 606.052 355.864 606.906 356.719C607.761 357.539 608.906 358.086 610.341 358.359V360H584.604V358.359C586.86 357.983 587.988 356.924 587.988 355.181C587.988 354.463 587.646 353.403 586.962 352.002L582.143 342.158ZM577.734 332.571L566.403 307.654L554.919 332.571H577.734Z" fill="url(#paint16_linear_9_11)"/>
</g>
<defs>
<linearGradient id="paint0_linear_9_11" x1="176.681" y1="189.532" x2="391.404" y2="189.532" gradientUnits="userSpaceOnUse">
<stop offset="4.99306e-09" stop-color="#54B139"/>
<stop offset="1" stop-color="#3DA239"/>
</linearGradient>
<linearGradient id="paint1_linear_9_11" x1="241.404" y1="174.287" x2="260.362" y2="174.287" gradientUnits="userSpaceOnUse">
<stop offset="4.99306e-09" stop-color="#54B139"/>
<stop offset="1" stop-color="#3DA239"/>
</linearGradient>
<linearGradient id="paint2_linear_9_11" x1="290.362" y1="189.351" x2="301.277" y2="189.351" gradientUnits="userSpaceOnUse">
<stop offset="4.99306e-09" stop-color="#113D6A"/>
<stop offset="1" stop-color="#0C60A1"/>
</linearGradient>
<linearGradient id="paint3_linear_9_11" x1="290.447" y1="203.394" x2="301.362" y2="203.394" gradientUnits="userSpaceOnUse">
<stop offset="4.99306e-09" stop-color="#113D6A"/>
<stop offset="1" stop-color="#0C60A1"/>
</linearGradient>
<linearGradient id="paint4_linear_9_11" x1="304.575" y1="203.479" x2="315.489" y2="203.479" gradientUnits="userSpaceOnUse">
<stop offset="4.99306e-09" stop-color="#113D6A"/>
<stop offset="1" stop-color="#0C60A1"/>
</linearGradient>
<linearGradient id="paint5_linear_9_11" x1="304.575" y1="189.266" x2="315.489" y2="189.266" gradientUnits="userSpaceOnUse">
<stop offset="4.99306e-09" stop-color="#113D6A"/>
<stop offset="1" stop-color="#0C60A1"/>
</linearGradient>
<linearGradient id="paint6_linear_9_11" x1="412.915" y1="220.638" x2="426.468" y2="220.638" gradientUnits="userSpaceOnUse">
<stop offset="4.99306e-09" stop-color="#113D6A"/>
<stop offset="1" stop-color="#0C60A1"/>
</linearGradient>
<linearGradient id="paint7_linear_9_11" x1="307.021" y1="174.255" x2="414.383" y2="174.255" gradientUnits="userSpaceOnUse">
<stop offset="4.99306e-09" stop-color="#113D6A"/>
<stop offset="1" stop-color="#0C60A1"/>
</linearGradient>
<linearGradient id="paint8_linear_9_11" x1="399.064" y1="143.362" x2="427.149" y2="143.362" gradientUnits="userSpaceOnUse">
<stop offset="4.99306e-09" stop-color="#113D6A"/>
<stop offset="1" stop-color="#0C60A1"/>
</linearGradient>
<linearGradient id="paint9_linear_9_11" x1="389.872" y1="199.66" x2="462.255" y2="199.66" gradientUnits="userSpaceOnUse">
<stop offset="4.99306e-09" stop-color="#113D6A"/>
<stop offset="1" stop-color="#0C60A1"/>
</linearGradient>
<linearGradient id="paint10_linear_9_11" x1="431.617" y1="156.957" x2="447.66" y2="156.957" gradientUnits="userSpaceOnUse">
<stop offset="4.99306e-09" stop-color="#113D6A"/>
<stop offset="1" stop-color="#0C60A1"/>
</linearGradient>
<linearGradient id="paint11_linear_9_11" x1="432.766" y1="144.383" x2="462.638" y2="144.383" gradientUnits="userSpaceOnUse">
<stop offset="4.99306e-09" stop-color="#113D6A"/>
<stop offset="1" stop-color="#0C60A1"/>
</linearGradient>
<linearGradient id="paint12_linear_9_11" x1="466.436" y1="152.707" x2="483.745" y2="152.707" gradientUnits="userSpaceOnUse">
<stop offset="4.99306e-09" stop-color="#113D6A"/>
<stop offset="1" stop-color="#0C60A1"/>
</linearGradient>
<linearGradient id="paint13_linear_9_11" x1="487.445" y1="173.17" x2="507.424" y2="173.17" gradientUnits="userSpaceOnUse">
<stop offset="4.99306e-09" stop-color="#113D6A"/>
<stop offset="1" stop-color="#0C60A1"/>
</linearGradient>
<linearGradient id="paint14_linear_9_11" x1="159.064" y1="249.545" x2="525.958" y2="249.545" gradientUnits="userSpaceOnUse">
<stop offset="4.99306e-09" stop-color="#54B139"/>
<stop offset="1" stop-color="#056A34"/>
</linearGradient>
<linearGradient id="paint15_linear_9_11" x1="158.851" y1="235.749" x2="561.225" y2="235.749" gradientUnits="userSpaceOnUse">
<stop offset="4.99306e-09" stop-color="#54B139"/>
<stop offset="1" stop-color="#056A34"/>
</linearGradient>
<linearGradient id="paint16_linear_9_11" x1="364" y1="384" x2="364" y2="267" gradientUnits="userSpaceOnUse">
<stop stop-color="#0C4172"/>
<stop offset="1" stop-color="#116DB4"/>
</linearGradient>
<clipPath id="clip0_9_11">
<rect width="697.53" height="563.74" fill="white"/>
</clipPath>
</defs>
</svg>
